<?xml version="1.0" encoding="utf-8" standalone="yes"?>
<!DOCTYPE svg PUBLIC "-//W3C//DTD SVG 1.1//EN" "http://www.w3.org/Graphics/SVG/1.1/DTD/svg11.dtd">
<svg width="626" height="518" viewBox="0 0 626 518" style="fill:none;stroke:none;fill-rule:evenodd;clip-rule:evenodd;stroke-linecap:round;stroke-linejoin:round;stroke-miterlimit:1.5;" version="1.1" xmlns="http://www.w3.org/2000/svg" xmlns:xlink="http://www.w3.org/1999/xlink"><style id="fontImports">@import url("https://fonts.googleapis.com/css2?family=Roboto:wght@400;700&amp;display=block");</style><rect id="" x="0" y="0" width="626" height="518" style="fill: #2c2c2c;"></rect><g id="items" style="isolation: isolate"><g id="blend" style="mix-blend-mode:normal"><g id="g-root-tf_1qf3je310421he-fill" data-item-order="-321984" transform="translate(-9, -9)"><g id="tf_1qf3je310421he-fill" stroke="none" fill="#2c2c2c"><g><path d="M 10 10L 634 10L 634 526L 10 526Z"></path></g></g></g><g id="g-root-3.arrow-3_sy_4ikoob103s8hz-fill" data-item-order="-90556" transform="translate(146.96267700195312, 97.885986328125)"><g id="3.arrow-3_sy_4ikoob103s8hz-fill" stroke="none" fill="#4b533a"><g><path d="M 165.295323 52.745998L 143.333323 134.706998L 130.678323 112.787998C 123.332323 116.866998 116.962323 122.928998 112.455323 130.735998C 102.722323 147.593998 104.377323 167.902998 115.034323 182.751998L 60.062323 197.481998L 67.047323 269.519998C 9.915323 226.340998 -7.411677 146.350998 29.316323 82.735998C 42.568323 59.782998 61.185323 41.857998 82.668323 29.631998L 71.334323 9.999998L 165.295323 52.745998Z"></path></g></g></g><g id="g-root-2.arrow-2_sy_1lt178r103s7i8-fill" data-item-order="-90552" transform="translate(197.02499389648438, 259.656005859375)"><g id="2.arrow-2_sy_1lt178r103s7i8-fill" stroke="none" fill="#3b5649"><g><path d="M 145.531006 16.965994C 132.276006 39.923994 102.920006 47.789994 79.962006 34.534994L 91.962006 13.750994L 10.000006 35.711994L 19.962006 138.457994L 31.962006 117.673994C 100.836006 157.437994 188.905006 133.839994 228.670006 64.965994C 238.748006 47.510994 244.756006 28.821994 246.988006 9.999994L 187.975006 52.151994L 147.969006 12.144994C 147.255006 13.776994 146.443006 15.386994 145.531006 16.965994Z"></path></g></g></g><g id="g-root-1.arrow-1_sy_1lt178r103s7i9-fill" data-item-order="-90548" transform="translate(234.89599609375, 98.59814453125)"><g id="1.arrow-1_sy_1lt178r103s7i9-fill" stroke="none" fill="#68403f"><g><path d="M 210.111004 153.208901L 234.104004 153.208901L 150.104004 213.208901L 90.104004 153.208901L 114.091004 153.208901C 113.799004 136.924901 105.223004 121.191901 90.091004 112.454901C 81.518004 107.504901 72.053004 105.500901 62.867004 106.126901L 77.362004 52.033901L 10.000004 21.388901C 50.136004 4.450901 97.454004 5.854901 138.091004 29.315901C 183.994004 55.817901 209.785004 103.776901 210.111004 153.208901Z"></path></g></g></g><g id="g-root-tx_cicloded_mg3j6z10420w9-fill" data-item-order="0" transform="translate(111, 39)"><g id="tx_cicloded_mg3j6z10420w9-fill" stroke="none" fill="#f4f4f4"><g><text style="font: bold 20px &quot;Roboto&quot;, sans-serif; white-space: pre;" font-weight="bold" font-size="20px" font-family="'Roboto', sans-serif"><tspan x="13.9" y="34" dominant-baseline="ideographic">Ciclo de Desarrollo Guiado por Pruebas</tspan></text></g></g></g><g id="g-root-tx_refactor_93e2nf10420b2-fill" data-item-order="0" transform="translate(15, 147)"><g id="tx_refactor_93e2nf10420b2-fill" stroke="none" fill="#f4f4f4"><g><text style="font: 20px &quot;Roboto&quot;, sans-serif; white-space: pre;" font-size="20px" font-family="'Roboto', sans-serif"><tspan x="19.8" y="34" dominant-baseline="ideographic">Refactorizar </tspan><tspan x="64.8" y="58" dominant-baseline="ideographic">Código</tspan></text></g></g></g><g id="g-root-tx_escribir_zqxkh710422h4-fill" data-item-order="0" transform="translate(447, 147)"><g id="tx_escribir_zqxkh710422h4-fill" stroke="none" fill="#f4f4f4"><g><text style="font: 20px &quot;Roboto&quot;, sans-serif; white-space: pre;" font-size="20px" font-family="'Roboto', sans-serif"><tspan x="12" y="34" dominant-baseline="ideographic">Escribir Prueba </tspan><tspan x="12" y="58" dominant-baseline="ideographic">que Falla</tspan></text></g></g></g><g id="g-root-wren_1d1riln1040mbt-fill" data-item-order="0" transform="translate(183, 171)"></g><g id="g-root-tube_hyelt710422o5-fill" data-item-order="0" transform="translate(351, 171)"></g><g id="g-root-1_1uo1qej104bv9c-fill" data-item-order="0" transform="translate(267, 315)"></g><g id="g-root-tx_implemen_1ut1m9710421ov-fill" data-item-order="0" transform="translate(225, 411)"><g id="tx_implemen_1ut1m9710421ov-fill" stroke="none" fill="#f4f4f4"><g><text style="font: 20px &quot;Roboto&quot;, sans-serif; white-space: pre;" font-size="20px" font-family="'Roboto', sans-serif"><tspan x="16.98" y="34" dominant-baseline="ideographic">Implementar </tspan><tspan x="41.92" y="58" dominant-baseline="ideographic">Código</tspan></text></g></g></g><g id="g-root-tf_1qf3je310421he-stroke" data-item-order="-321984" transform="translate(-9, -9)"></g><g id="g-root-3.arrow-3_sy_4ikoob103s8hz-stroke" data-item-order="-90556" transform="translate(146.96267700195312, 97.885986328125)"><g id="3.arrow-3_sy_4ikoob103s8hz-stroke" fill="none" stroke-linecap="round" stroke-linejoin="round" stroke-miterlimit="4" stroke="#a6da37" stroke-width="2"><g><path d="M 165.295323 52.745998L 143.333323 134.706998L 130.678323 112.787998C 123.332323 116.866998 116.962323 122.928998 112.455323 130.735998C 102.722323 147.593998 104.377323 167.902998 115.034323 182.751998L 60.062323 197.481998L 67.047323 269.519998C 9.915323 226.340998 -7.411677 146.350998 29.316323 82.735998C 42.568323 59.782998 61.185323 41.857998 82.668323 29.631998L 71.334323 9.999998L 165.295323 52.745998Z"></path></g></g></g><g id="g-root-2.arrow-2_sy_1lt178r103s7i8-stroke" data-item-order="-90552" transform="translate(197.02499389648438, 259.656005859375)"><g id="2.arrow-2_sy_1lt178r103s7i8-stroke" fill="none" stroke-linecap="round" stroke-linejoin="round" stroke-miterlimit="4" stroke="#43dd93" stroke-width="2"><g><path d="M 145.531006 16.965994C 132.276006 39.923994 102.920006 47.789994 79.962006 34.534994L 91.962006 13.750994L 10.000006 35.711994L 19.962006 138.457994L 31.962006 117.673994C 100.836006 157.437994 188.905006 133.839994 228.670006 64.965994C 238.748006 47.510994 244.756006 28.821994 246.988006 9.999994L 187.975006 52.151994L 147.969006 12.144994C 147.255006 13.776994 146.443006 15.386994 145.531006 16.965994Z"></path></g></g></g><g id="g-root-1.arrow-1_sy_1lt178r103s7i9-stroke" data-item-order="-90548" transform="translate(234.89599609375, 98.59814453125)"><g id="1.arrow-1_sy_1lt178r103s7i9-stroke" fill="none" stroke-linecap="round" stroke-linejoin="round" stroke-miterlimit="4" stroke="#fb6762" stroke-width="2"><g><path d="M 210.111004 153.208901L 234.104004 153.208901L 150.104004 213.208901L 90.104004 153.208901L 114.091004 153.208901C 113.799004 136.924901 105.223004 121.191901 90.091004 112.454901C 81.518004 107.504901 72.053004 105.500901 62.867004 106.126901L 77.362004 52.033901L 10.000004 21.388901C 50.136004 4.450901 97.454004 5.854901 138.091004 29.315901C 183.994004 55.817901 209.785004 103.776901 210.111004 153.208901Z"></path></g></g></g><g id="g-root-tx_cicloded_mg3j6z10420w9-stroke" data-item-order="0" transform="translate(111, 39)"></g><g id="g-root-tx_refactor_93e2nf10420b2-stroke" data-item-order="0" transform="translate(15, 147)"></g><g id="g-root-tx_escribir_zqxkh710422h4-stroke" data-item-order="0" transform="translate(447, 147)"></g><g id="g-root-wren_1d1riln1040mbt-stroke" data-item-order="0" transform="translate(183, 171)"><g id="wren_1d1riln1040mbt-stroke" fill="none" stroke-linecap="round" stroke-linejoin="round" stroke-miterlimit="4" stroke="#a6da37" stroke-width="2"><g><path d="M 56.045715 22.308571C 55.91172 21.581938 55.47554 20.946358 54.845715 20.559999L 47.988571 27.417143C 47.342342 28.087606 46.451199 28.466375 45.52 28.466375C 44.588799 28.466375 43.697659 28.087606 43.05143 27.417143L 40.445717 25.085714C 39.138939 23.752537 39.138939 21.618893 40.445717 20.285715L 47.302856 13.428572C 47.000103 12.717376 46.397224 12.177299 45.657143 11.954286C 40.775776 10.980844 35.766331 12.873705 32.748444 16.831947C 29.730558 20.790192 29.231665 26.122034 31.462858 30.571428L 12.742857 49.119999C 12.083157 49.765053 11.711284 50.648769 11.711284 51.57143C 11.711284 52.494087 12.083157 53.377804 12.742857 54.022858L 13.977142 55.257141C 14.622196 55.916847 15.505913 56.288715 16.428572 56.288715C 17.351231 56.288715 18.234947 55.916847 18.879999 55.257141L 37.600002 36.57143C 42.048428 38.690815 47.31094 38.126667 51.209045 35.112518C 55.107147 32.098373 56.977451 27.147182 56.045715 22.308573Z"></path></g></g></g><g id="g-root-tube_hyelt710422o5-stroke" data-item-order="0" transform="translate(351, 171)"><g id="tube_hyelt710422o5-stroke" fill="none" stroke-linecap="round" stroke-linejoin="round" stroke-miterlimit="4" stroke="#fb6762" stroke-width="2"><g><path d="M 23.524 22.299999C 21.886202 23.036369 20.10301 23.392597 18.307999 23.341999C 17.967943 23.336716 17.648512 23.504625 17.460047 23.787727C 17.27158 24.070831 17.23992 24.430313 17.375999 24.742001L 22.540001 36.223999C 22.67889 36.535858 22.968937 36.753922 23.307102 36.80072C 23.645271 36.847519 23.983637 36.716423 24.202 36.454002C 25.356066 35.080536 26.806389 33.986465 28.444 33.253998L 47.748001 24.576C 50.433155 23.424788 51.937809 20.543377 51.348 17.681999C 50.949905 15.9259 49.784161 14.441435 48.17252 13.638327C 46.560879 12.835219 44.673752 12.798388 43.032001 13.538ZM 24.498001 51C 24.498001 53.209141 22.707138 55 20.498001 55C 18.28886 55 16.498001 53.209141 16.498001 51C 16.498001 49.419998 18.543999 46.52 19.708 45C 19.897472 44.75668 20.18861 44.614391 20.497 44.614391C 20.805389 44.614391 21.096527 44.75668 21.285999 45C 22.452 46.52 24.498001 49.419998 24.498001 51ZM 27.889999 33.493999L 25.43 28.021999M 33.363998 31.034L 31.722 27.384001M 38.835999 28.573999L 36.374001 23.102001M 44.307999 26.114L 42.667999 22.464001"></path></g></g></g><g id="g-root-1_1uo1qej104bv9c-stroke" data-item-order="0" transform="translate(267, 315)"><g id="1_1uo1qej104bv9c-stroke" fill="none" stroke-linecap="round" stroke-linejoin="round" stroke-miterlimit="4" stroke="#43dd93" stroke-width="2"><g><path d="M 31 57L 13 57C 11.895431 57 11 56.104568 11 55L 11 13C 11 11.895431 11.895431 11 13 11L 39.585999 11C 40.118408 11.003817 40.627319 11.219762 41 11.6L 48.414001 19C 48.789101 19.374985 48.999886 19.88361 49 20.414L 49 27M 23 24.007999L 17 30.007999L 23 36.007999M 29 24.007999L 35 30.007999L 29 36.007999M 33 45.007999C 33 51.635418 38.372581 57.007999 45 57.007999C 51.627419 57.007999 57 51.635418 57 45.007999C 57 38.380585 51.627419 33.008003 45 33.008003C 38.372581 33.008003 33 38.380585 33 45.007999ZM 50.348 41.517998L 44.537998 49.265999C 44.276604 49.613647 43.877338 49.83091 43.44347 49.861599C 43.009598 49.892288 42.583725 49.733391 42.275997 49.425999L 39.276001 46.425999"></path></g></g></g><g id="g-root-tx_implemen_1ut1m9710421ov-stroke" data-item-order="0" transform="translate(225, 411)"></g></g></g></svg>